<?xml version="1.0" encoding="utf-8"?>
<?xml-stylesheet type="text/xsl" href="rss1.xsl"?>
<rss version="2.0" xmlns:atom="http://www.w3.org/2005/Atom" xmlns:content="http://purl.org/rss/1.0/modules/content/" xmlns:dc="http://purl.org/dc/elements/1.1/" xmlns:media="http://search.yahoo.com/mrss/">
<channel>
 <title>Getty</title>
 <link>http://www.gettyimg.com/</link>
 <atom:link href="http://www.gettyimg.com/" rel="self" type="application/rss+xml" />

 
                <item>
                <title><![CDATA[【DVD】DVD5 - Casi Angeles videoclips ineditos VOB]]></title>
                <link><![CDATA[https://sharemania.us/threads/casi-angeles-videoclips-ineditos-vob.232981/]]></link>
                <description><![CDATA[<article>
<blockquote class="messageText SelectQuoteContainer ugc baseHtml">
<b><br>
<img src="https://banner2.cleanpng.com/20180608/zhu/kisspng-teen-angels-marianella-rinaldi-teenangels-voy-por-5b1a4ef95d4d75.5853791715284508093822.jpg" class="bbCodeImage LbImage" alt="[​IMG]" data-url="https://banner2.cleanpng.com/20180608/zhu/kisspng-teen-angels-marianella-rinaldi-teenangels-voy-por-5b1a4ef95d4d75.5853791715284508093822.jpg" style=""> <br>
<br>
<br>
<br>
<br>
ESPERO QUE LO DIFRUTEN <br>
<br>
LOS VIDEOCLIPS INEDITOS QUE SON 3 :<br>
<br>
NAVIDAD<br>
CADA VEZ QUE SALE EL SOL <br>
HOY QUIERO DE COCA COLA <br>
<br>
MEGA:</b><br>
<div class="bbCodeBlock bbCodeVfcHH HiddenContent">
<div class="attribution type">Hidden Content:</div>
<blockquote>You must reply before you can see the hidden data contained here.</blockquote>
</div>
<div class="messageTextEndMarker">&nbsp;</div>
</blockquote>
</article>]]></description>
                <author><![CDATA[Nepe1]]></author>
                </item>

                
                <item>
                <title><![CDATA[【PRORES HD】Taylor Swift - Cardigan MASTER ProRes 1080p LPCM2.0]]></title>
                <link><![CDATA[https://sharemania.us/threads/taylor-swift-cardigan-master-prores-1080p-lpcm2-0.232980/]]></link>
                <description><![CDATA[<article>
<blockquote class="messageText SelectQuoteContainer ugc baseHtml">
<img src="https://www.rollingstone.com/wp-content/uploads/2020/07/SwiftCardiganVideo.jpg" class="bbCodeImage LbImage" alt="[​IMG]" data-url="https://www.rollingstone.com/wp-content/uploads/2020/07/SwiftCardiganVideo.jpg" style=""> <br>
<img src="https://i.postimg.cc/SNTySfXB/Taylor-Swift-Cardigan-MASTER-Pro-Res-1080p-LPCM2-0-mov.jpg" class="bbCodeImage LbImage" alt="[​IMG]" data-url="https://i.postimg.cc/SNTySfXB/Taylor-Swift-Cardigan-MASTER-Pro-Res-1080p-LPCM2-0-mov.jpg" style=""> <br>
<div class="ToggleTriggerAnchor bbCodeSpoilerContainer">
<button type="button" class="button bbCodeSpoilerButton ToggleTrigger Tooltip JsOnly" data-target="> .SpoilerTarget"><span>Spoiler: <span class="SpoilerTitle">Media Info</span></span></button>
<div class="SpoilerTarget bbCodeSpoilerText">General<br>
Complete name : Taylor Swift - Cardigan MASTER ProRes 1080p LPCM2.0.mov<br>
Format : MPEG-4<br>
Format profile : QuickTime<br>
Codec ID : qt 2005.03 (qt )<br>
File size : 4.80 GiB<br>
Duration : 4 min 33 s<br>
Overall bit rate mode : Variable<br>
Overall bit rate : 151 Mb/s<br>
Frame rate : 23.976 FPS<br>
Encoded date : 2020-07-28 17:52:53 UTC<br>
Tagged date : 2020-07-23 17:54:23 UTC<br>
Writing library : Apple QuickTime<br>
TIM : 01:00:00:00<br>
TSC : 24000<br>
TSZ : 1001<br>
<br>
Video<br>
ID : 1<br>
Format : ProRes<br>
Format version : Version 0<br>
Format profile : 422 HQ<br>
Codec ID : apch<br>
Duration : 4 min 33 s<br>
Bit rate mode : Variable<br>
Bit rate : 148 Mb/s<br>
Width : 1 920 pixels<br>
Height : 1 080 pixels<br>
Display aspect ratio : 16:9<br>
Frame rate mode : Constant<br>
Frame rate : 23.976 (24000/1001) FPS<br>
Color space : YUV<br>
Chroma subsampling : 4:2:2<br>
Scan type : Progressive<br>
Bits/(Pixel*Frame) : 2.985<br>
Stream size : 4.73 GiB (98%)<br>
Writing library : adb0<br>
Language : English<br>
Encoded date : 2020-07-28 17:52:53 UTC<br>
Tagged date : 2020-07-28 17:52:53 UTC<br>
Color primaries : BT.709<br>
Transfer characteristics : BT.709<br>
Matrix coefficients : BT.709<br>
<br>
Audio<br>
ID : 2<br>
Format : PCM<br>
Format settings : Little / Signed<br>
Codec ID : in24<br>
Duration : 4 min 33 s<br>
Bit rate mode : Constant<br>
Bit rate : 2 304 kb/s<br>
Channel(s) : 2 channels<br>
Channel layout : L R<br>
Sampling rate : 48.0 kHz<br>
Bit depth : 24 bits<br>
Stream size : 75.1 MiB (2%)<br>
Language : English<br>
Encoded date : 2020-07-28 17:52:53 UTC<br>
Tagged date : 2020-07-28 17:52:53 UTC<br>
<br>
Other<br>
ID : 3<br>
Type : Time code<br>
Format : QuickTime TC<br>
Duration : 4 min 33 s<br>
Frame rate : 23.976 (24000/1001) FPS<br>
Time code of first frame : 01:00:00:00<br>
Time code of last frame : 01:04:33:05<br>
Time code, stripped : Yes<br>
Language : English<br>
Encoded date : 2020-07-28 17:52:53 UTC<br>
Tagged date : 2020-07-28 17:52:53 UTC</div>
</div>
<div class="bbCodeBlock bbCodeVfcHH HiddenContent">
<div class="attribution type">Hidden Content:</div>
<blockquote>You must either reply or click 'Like' to see the hidden information contained here.</blockquote>
</div>
<div class="messageTextEndMarker">&nbsp;</div>
</blockquote>
</article>]]></description>
                <author><![CDATA[szymek04sawicki]]></author>
                </item>

                </channel></rss>